<svg id="bold" enable-background="new 0 0 32 32" height="512" viewBox="0 0 32 32" width="512" xmlns="http://www.w3.org/2000/svg"><path d="m26 32h-20c-3.314 0-6-2.686-6-6v-20c0-3.314 2.686-6 6-6h20c3.314 0 6 2.686 6 6v20c0 3.314-2.686 6-6 6z" fill="#ffe6e2"/><g fill="#fc573b"><path d="m14.833 19.667h-.5v2h.5c.093 0 .167-.073.167-.167v-1.667c0-.093-.073-.166-.167-.166z"/><path d="m11.333 19.667h-.333v.667h.333c.187 0 .333-.147.333-.333.001-.188-.146-.334-.333-.334z"/><path d="m20.86 16.02c-.527.2-1.1.313-1.693.313-2.667 0-4.833-2.167-4.833-4.833 0-1.373.573-2.62 1.5-3.5h-6c-1.014 0-1.834.82-1.834 1.833v12.333c0 1.014.82 1.834 1.833 1.834h9.667c1.013 0 1.833-.82 1.833-1.833v-5.673zm-9.527 5.313h-.333v.833c0 .273-.227.5-.5.5s-.5-.227-.5-.5v-3c0-.273.227-.5.5-.5h.833c.733 0 1.333.6 1.333 1.333.001.734-.599 1.334-1.333 1.334zm4.667.167c0 .64-.527 1.167-1.167 1.167h-1c-.273 0-.5-.227-.5-.5v-3c0-.273.227-.5.5-.5h1c.64 0 1.167.527 1.167 1.167zm2.833-1.167c.276 0 .5.224.5.5s-.224.5-.5.5h-1.167v.833c0 .276-.224.5-.5.5s-.5-.224-.5-.5v-2.333c0-.643.523-1.167 1.167-1.167h1c.276 0 .5.224.5.5s-.224.5-.5.5h-1c-.092 0-.167.075-.167.167v.5z"/></g><path d="m19.167 15c-1.93 0-3.5-1.57-3.5-3.5s1.57-3.5 3.5-3.5 3.5 1.57 3.5 3.5-1.57 3.5-3.5 3.5zm0-5.667c-1.195 0-2.167.972-2.167 2.167s.972 2.167 2.167 2.167 2.167-.972 2.167-2.167-.973-2.167-2.167-2.167z" fill="#fd907e"/><path d="m23.333 16.333c-.171 0-.341-.065-.471-.195l-2.167-2.167c-.26-.26-.26-.682 0-.943.26-.26.682-.26.943 0l2.167 2.167c.26.26.26.682 0 .943-.131.13-.301.195-.472.195z" fill="#fd907e"/></svg>