<svg id="_x31_" enable-background="new 0 0 24 24" height="512" viewBox="0 0 24 24" width="512" xmlns="http://www.w3.org/2000/svg"><path d="m17.004 9.953c-.001 0-.002 0-.003 0-2.757-.001-4.999-2.246-4.998-5.002.001-2.756 2.244-4.997 5-4.997h.003c1.335.001 2.591.521 3.535 1.466s1.463 2.201 1.462 3.537c0 1.335-.521 2.591-1.466 3.535-.944.941-2.199 1.461-3.533 1.461zm-4.001-5.003c-.001 2.206 1.793 4.001 3.999 4.002h.002c1.067 0 2.071-.416 2.826-1.17.756-.755 1.172-1.759 1.173-2.828 0-1.069-.415-2.073-1.17-2.829s-1.759-1.173-2.828-1.173c0 0-.001 0-.002 0-1.067 0-2.071.416-2.826 1.17-.756.755-1.173 1.76-1.174 2.828z"/><path d="m23.5 11.956c-.128 0-.256-.049-.354-.146l-3.316-3.32c-.195-.195-.195-.512 0-.707s.512-.195.707 0l3.316 3.32c.195.195.195.512 0 .707-.097.097-.225.146-.353.146z"/><path d="m16.5 21h-2c-.827 0-1.5-.673-1.5-1.5v-3c0-.827.673-1.5 1.5-1.5h2c.276 0 .5.224.5.5s-.224.5-.5.5h-2c-.276 0-.5.225-.5.5v3c0 .275.224.5.5.5h2c.276 0 .5.224.5.5s-.224.5-.5.5z"/><path d="m5.5 21h-2c-.276 0-.5-.224-.5-.5v-5c0-.276.224-.5.5-.5h2c.827 0 1.5.673 1.5 1.5v3c0 .827-.673 1.5-1.5 1.5zm-1.5-1h1.5c.276 0 .5-.225.5-.5v-3c0-.275-.224-.5-.5-.5h-1.5z"/><path d="m10.5 21h-1c-.827 0-1.5-.673-1.5-1.5v-3c0-.827.673-1.5 1.5-1.5h1c.827 0 1.5.673 1.5 1.5v3c0 .827-.673 1.5-1.5 1.5zm-1-5c-.276 0-.5.225-.5.5v3c0 .275.224.5.5.5h1c.276 0 .5-.225.5-.5v-3c0-.275-.224-.5-.5-.5z"/><path d="m17.5 24h-15c-1.378 0-2.5-1.121-2.5-2.5v-19c0-1.378 1.122-2.5 2.5-2.5h7c.276 0 .5.224.5.5s-.224.5-.5.5h-7c-.827 0-1.5.673-1.5 1.5v19c0 .827.673 1.5 1.5 1.5h15c.827 0 1.5-.673 1.5-1.5v-6c0-.276.224-.5.5-.5s.5.224.5.5v6c0 1.379-1.122 2.5-2.5 2.5z"/></svg>